<svg width="32" height="32" viewBox="0 0 32 32" fill="none" xmlns="http://www.w3.org/2000/svg">
  <rect width="32" height="32" rx="8" fill="#FF6B35"/>
  <path d="M8 12C8 10.8954 8.89543 10 10 10H22C23.1046 10 24 10.8954 24 12V13C24 13.5523 23.5523 14 23 14H9C8.44772 14 8 13.5523 8 13V12Z" fill="white"/>
  <path d="M8 17C8 16.4477 8.44772 16 9 16H23C23.5523 16 24 16.4477 24 17V18C24 18.5523 23.5523 19 23 19H9C8.44772 19 8 18.5523 8 18V17Z" fill="white" fill-opacity="0.8"/>
  <path d="M8 22C8 21.4477 8.44772 21 9 21H18C18.5523 21 19 21.4477 19 22C19 22.5523 18.5523 23 18 23H9C8.44772 23 8 22.5523 8 22Z" fill="white" fill-opacity="0.6"/>
</svg>
